<?xml version="1.0" encoding="UTF-8" standalone="no"?>
<svg
   xmlns:dc="http://purl.org/dc/elements/1.1/"
   xmlns:cc="http://creativecommons.org/ns#"
   xmlns:rdf="http://www.w3.org/1999/02/22-rdf-syntax-ns#"
   xmlns:svg="http://www.w3.org/2000/svg"
   xmlns="http://www.w3.org/2000/svg"
   viewBox="0 0 605.29999 176.84666"
   height="176.84666"
   width="605.29999"
   xml:space="preserve"
   id="svg2"
   version="1.1"><metadata
     id="metadata8"><rdf:RDF><cc:Work
         rdf:about=""><dc:format>image/svg+xml</dc:format><dc:type
           rdf:resource="http://purl.org/dc/dcmitype/StillImage" /></cc:Work></rdf:RDF></metadata><defs
     id="defs6"><clipPath
       id="clipPath38"
       clipPathUnits="userSpaceOnUse"><path
         id="path36"
         d="M 0,132.635 H 453.975 V 0 H 0 Z" /></clipPath></defs><g
     transform="matrix(1.3333333,0,0,-1.3333333,0,176.84667)"
     id="g10"><g
       transform="translate(12.6002,96.6848)"
       id="g12"><path
         id="path14"
         style="fill:none;stroke:#bcccd4;stroke-width:5;stroke-linecap:butt;stroke-linejoin:miter;stroke-miterlimit:10;stroke-dasharray:none;stroke-opacity:1"
         d="M 0,0 H 122.746" /></g><g
       transform="translate(12.6002,32.6355)"
       id="g16"><path
         id="path18"
         style="fill:none;stroke:#bcccd4;stroke-width:5;stroke-linecap:butt;stroke-linejoin:miter;stroke-miterlimit:10;stroke-dasharray:none;stroke-opacity:1"
         d="M 0,0 H 122.746" /></g><g
       transform="translate(14.9752,98.8728)"
       id="g20"><path
         id="path22"
         style="fill:none;stroke:#bcccd4;stroke-width:5;stroke-linecap:butt;stroke-linejoin:miter;stroke-miterlimit:10;stroke-dasharray:none;stroke-opacity:1"
         d="M 0,0 V -68.55" /></g><g
       transform="translate(428.6798,96.9655)"
       id="g24"><path
         id="path26"
         style="fill:none;stroke:#bcccd4;stroke-width:5;stroke-linecap:butt;stroke-linejoin:miter;stroke-miterlimit:10;stroke-dasharray:none;stroke-opacity:1"
         d="M 0,0 H 14.405" /></g><g
       transform="translate(428.6798,32.9167)"
       id="g28"><path
         id="path30"
         style="fill:none;stroke:#bcccd4;stroke-width:5;stroke-linecap:butt;stroke-linejoin:miter;stroke-miterlimit:10;stroke-dasharray:none;stroke-opacity:1"
         d="M 0,0 H 14.405" /></g><g
       id="g32"><g
         clip-path="url(#clipPath38)"
         id="g34"><g
           transform="translate(170.8175,35.3405)"
           id="g40"><path
             id="path42"
             style="fill:#343a56;fill-opacity:1;fill-rule:nonzero;stroke:none"
             d="m 0,0 c -2.911,-1.875 -6.348,-2.813 -10.313,-2.813 -4.296,0 -7.763,1.373 -10.4,4.117 -2.637,2.743 -3.955,6.43 -3.955,11.059 0,4.864 1.411,8.75 4.233,11.66 2.823,2.911 6.509,4.366 11.06,4.366 3.417,0 6.543,-0.84 9.375,-2.52 v 6.914 c -2.676,1.153 -6.045,1.729 -10.107,1.729 -6.31,0 -11.529,-2.071 -15.66,-6.211 -4.13,-4.141 -6.196,-9.571 -6.196,-16.289 0,-6.25 1.836,-11.299 5.508,-15.147 3.672,-3.847 8.555,-5.771 14.648,-5.771 4.707,0 8.643,0.82 11.807,2.461 z m 31.89,-4.585 c 2.822,2.881 4.233,6.714 4.233,11.499 0,4.883 -1.309,8.701 -3.926,11.455 C 29.58,21.123 25.928,22.5 21.24,22.5 16.357,22.5 12.476,21.084 9.595,18.252 6.713,15.42 5.273,11.484 5.273,6.445 c 0,-4.629 1.382,-8.345 4.146,-11.147 2.764,-2.803 6.46,-4.204 11.089,-4.204 4.765,0 8.559,1.439 11.382,4.321 m -4.893,18.97 c 1.436,-1.797 2.153,-4.346 2.153,-7.647 0,-3.281 -0.717,-5.81 -2.153,-7.588 -1.435,-1.777 -3.491,-2.666 -6.167,-2.666 -2.618,0 -4.707,0.904 -6.269,2.71 -1.563,1.806 -2.344,4.283 -2.344,7.427 0,3.262 0.771,5.82 2.314,7.676 1.543,1.855 3.643,2.783 6.299,2.783 2.676,0 4.732,-0.898 6.167,-2.695 m 42.759,-4.248 c 0,4.004 -0.86,7.064 -2.578,9.184 -1.719,2.119 -4.209,3.179 -7.471,3.179 -4.238,0 -7.481,-1.895 -9.727,-5.684 h -0.117 v 4.981 h -6.826 v -30 h 6.826 V 8.906 c 0,2.364 0.674,4.322 2.022,5.874 1.347,1.553 3.056,2.329 5.127,2.329 3.965,0 5.947,-2.802 5.947,-8.408 V -8.203 h 6.797 z M 84.697,-8.906 c 1.699,0 3.316,0.18 4.849,0.542 1.533,0.361 2.886,0.913 4.058,1.655 1.171,0.742 2.109,1.68 2.812,2.813 0.703,1.132 1.055,2.46 1.055,3.984 0,1.25 -0.196,2.329 -0.586,3.237 -0.392,0.908 -0.948,1.709 -1.67,2.403 -0.723,0.692 -1.597,1.313 -2.622,1.86 -1.026,0.547 -2.183,1.084 -3.472,1.611 -0.977,0.332 -1.841,0.64 -2.593,0.923 -0.752,0.282 -1.396,0.596 -1.933,0.938 -0.537,0.34 -0.943,0.737 -1.216,1.186 -0.275,0.449 -0.41,0.996 -0.41,1.641 0,0.527 0.135,1.01 0.41,1.45 0.273,0.439 0.654,0.815 1.142,1.128 0.488,0.312 1.08,0.556 1.773,0.732 0.693,0.176 1.469,0.264 2.329,0.264 2.734,0 5.156,-0.723 7.266,-2.168 v 5.947 c -2.188,0.84 -4.669,1.26 -7.442,1.26 -1.563,0 -3.076,-0.19 -4.541,-0.571 -1.465,-0.381 -2.773,-0.949 -3.926,-1.7 -1.153,-0.751 -2.07,-1.68 -2.753,-2.783 -0.685,-1.103 -1.026,-2.378 -1.026,-3.823 0,-1.172 0.165,-2.197 0.498,-3.076 0.332,-0.879 0.825,-1.666 1.48,-2.359 0.654,-0.693 1.474,-1.313 2.461,-1.86 0.986,-0.547 2.094,-1.064 3.325,-1.553 0.996,-0.371 1.899,-0.703 2.71,-0.996 0.81,-0.293 1.513,-0.625 2.109,-0.996 0.596,-0.371 1.07,-0.796 1.421,-1.274 0.352,-0.48 0.527,-1.06 0.527,-1.743 0,-2.422 -2.05,-3.633 -6.152,-3.633 -3.066,0 -5.87,0.967 -8.408,2.9 v -6.299 c 2.402,-1.093 5.244,-1.64 8.525,-1.64 m 45.381,30.703 h -6.797 V 4.541 c 0,-2.402 -0.649,-4.346 -1.948,-5.83 -1.299,-1.484 -2.955,-2.227 -4.966,-2.227 -4.16,0 -6.24,2.696 -6.24,8.086 V 21.797 H 103.33 V 3.867 c 0,-8.515 3.545,-12.773 10.635,-12.773 4.16,0 7.225,1.816 9.199,5.449 h 0.117 v -4.746 h 6.797 z m 15.674,14.414 h -6.826 V -8.203 h 6.826 z M 170.42,-2.49 c -0.84,-0.664 -1.836,-0.996 -2.988,-0.996 -1.504,0 -2.578,0.381 -3.223,1.142 -0.645,0.762 -0.967,2.032 -0.967,3.809 v 15 h 7.178 v 5.332 h -7.178 v 8.877 l -6.797,-1.934 v -6.943 h -5.009 v -5.332 h 5.009 V -0.498 c 0,-5.586 2.91,-8.379 8.731,-8.379 2.168,0 3.916,0.332 5.244,0.996 z m 12.217,31.714 c 0.8,0.751 1.201,1.655 1.201,2.71 0,1.113 -0.401,2.04 -1.201,2.783 -0.801,0.742 -1.778,1.113 -2.93,1.113 -1.113,0 -2.065,-0.371 -2.856,-1.113 -0.791,-0.743 -1.187,-1.67 -1.187,-2.783 0,-1.114 0.396,-2.032 1.187,-2.754 0.791,-0.723 1.743,-1.084 2.856,-1.084 1.152,0 2.129,0.376 2.93,1.128 m 0.439,-7.427 h -6.797 v -30 h 6.797 z m 35.596,-11.66 c 0,4.004 -0.86,7.064 -2.578,9.184 -1.719,2.119 -4.209,3.179 -7.471,3.179 -4.238,0 -7.48,-1.895 -9.727,-5.684 h -0.117 v 4.981 h -6.826 v -30 h 6.826 V 8.906 c 0,2.364 0.674,4.322 2.022,5.874 1.347,1.553 3.056,2.329 5.127,2.329 3.965,0 5.947,-2.802 5.947,-8.408 V -8.203 h 6.797 z m 35.596,11.66 h -6.797 v -4.16 h -0.117 c -1.915,3.242 -4.854,4.863 -8.819,4.863 -4.199,0 -7.5,-1.504 -9.902,-4.512 -2.403,-3.008 -3.604,-7.06 -3.604,-12.158 0,-4.492 1.118,-8.071 3.355,-10.737 2.236,-2.666 5.18,-3.999 8.833,-3.999 4.512,0 7.89,1.914 10.137,5.742 h 0.117 v -3.281 c 0,-7.012 -3.565,-10.518 -10.694,-10.518 -2.949,0 -6.064,0.938 -9.345,2.813 v -6.211 c 2.91,-1.309 6.318,-1.963 10.224,-1.963 11.074,0 16.612,5.508 16.612,16.523 z m -8.936,-22.749 c -1.465,-1.69 -3.369,-2.534 -5.713,-2.534 -2.305,0 -4.155,0.882 -5.552,2.651 -1.396,1.768 -2.094,4.126 -2.094,7.075 0,3.418 0.727,6.079 2.182,7.984 1.455,1.904 3.472,2.856 6.05,2.856 2.09,0 3.833,-0.747 5.23,-2.241 1.396,-1.494 2.094,-3.296 2.094,-5.405 V 5.537 c 0,-2.637 -0.732,-4.801 -2.197,-6.489" /></g><g
           transform="translate(167.5167,101.1101)"
           id="g44"><path
             id="path46"
             style="fill:#343a56;fill-opacity:1;fill-rule:nonzero;stroke:none"
             d="m 0,0 h -5.678 l -6.75,-16.717 c -0.269,-0.644 -0.621,-1.629 -1.054,-2.953 h -0.088 c -0.153,0.633 -0.481,1.594 -0.985,2.883 L -21.182,0 h -5.888 v -25.207 h 3.867 V -8.93 c 0,2.285 -0.047,3.932 -0.141,4.94 h 0.071 c 0.234,-1.125 0.457,-1.963 0.668,-2.514 l 7.541,-18.703 h 2.882 l 7.524,18.844 c 0.199,0.48 0.428,1.271 0.685,2.373 h 0.071 C -4.066,-5.924 -4.148,-7.559 -4.148,-8.895 V -25.207 H 0 Z m 9.563,-2.751 c 0.48,0.451 0.72,0.993 0.72,1.626 0,0.668 -0.24,1.225 -0.72,1.67 C 9.082,0.99 8.496,1.213 7.805,1.213 7.137,1.213 6.565,0.99 6.091,0.545 5.616,0.1 5.379,-0.457 5.379,-1.125 c 0,-0.668 0.237,-1.219 0.712,-1.652 0.474,-0.434 1.046,-0.651 1.714,-0.651 0.691,0 1.277,0.226 1.758,0.677 M 9.826,-7.207 H 5.748 v -18 H 9.826 Z M 31.518,1.441 H 27.439 V -9.703 h -0.07 c -1.101,1.945 -2.865,2.918 -5.291,2.918 -2.449,0 -4.409,-0.897 -5.88,-2.69 -1.47,-1.793 -2.206,-4.177 -2.206,-7.154 0,-2.777 0.665,-4.972 1.995,-6.583 1.33,-1.611 3.103,-2.417 5.318,-2.417 2.73,0 4.752,1.16 6.064,3.481 h 0.07 v -3.059 h 4.079 z m -5.327,-22.297 c -0.867,-1.026 -1.998,-1.539 -3.392,-1.539 -1.418,0 -2.546,0.531 -3.384,1.591 -0.838,1.061 -1.257,2.505 -1.257,4.333 0,2.016 0.437,3.592 1.31,4.729 0.873,1.137 2.071,1.705 3.594,1.705 1.29,0 2.35,-0.445 3.182,-1.336 0.832,-0.891 1.248,-1.975 1.248,-3.252 v -2.355 c 0,-1.559 -0.433,-2.851 -1.301,-3.876 m 30.973,13.649 -3.199,-13.025 c -0.152,-0.598 -0.24,-1.114 -0.264,-1.547 h -0.123 c -0.047,0.621 -0.123,1.136 -0.228,1.547 l -3.235,13.025 h -3.832 l -3.638,-12.938 c -0.153,-0.562 -0.247,-1.089 -0.282,-1.582 H 42.24 c -0.035,0.645 -0.105,1.161 -0.211,1.547 L 38.76,-7.207 h -4.219 l 5.291,-18 h 4.184 l 3.55,12.234 c 0.188,0.633 0.293,1.149 0.317,1.547 h 0.07 c 0.035,-0.586 0.117,-1.113 0.246,-1.582 l 3.27,-12.199 h 4.271 l 5.309,18 z m 21.973,-8.543 c 0,2.812 -0.674,5.01 -2.022,6.592 -1.347,1.582 -3.252,2.373 -5.713,2.373 -2.461,0 -4.52,-0.882 -6.178,-2.646 -1.659,-1.763 -2.488,-4.046 -2.488,-6.846 0,-2.965 0.753,-5.265 2.259,-6.9 1.506,-1.635 3.583,-2.452 6.232,-2.452 2.695,0 4.863,0.516 6.503,1.547 v 3.287 c -1.605,-1.148 -3.369,-1.723 -5.291,-1.723 -1.71,0 -3.055,0.452 -4.034,1.354 -0.978,0.902 -1.491,2.185 -1.538,3.85 h 12.27 z m -12.27,1.318 c 0.188,1.383 0.689,2.502 1.503,3.358 0.815,0.855 1.808,1.283 2.98,1.283 1.195,0 2.132,-0.407 2.812,-1.222 0.68,-0.814 1.026,-1.954 1.037,-3.419 z m 20.145,-11.197 c 1.019,0 1.989,0.108 2.909,0.325 0.92,0.217 1.731,0.548 2.434,0.993 0.704,0.446 1.266,1.008 1.688,1.688 0.422,0.68 0.633,1.477 0.633,2.391 0,0.75 -0.117,1.397 -0.352,1.942 -0.234,0.545 -0.568,1.025 -1.002,1.441 -0.433,0.416 -0.958,0.788 -1.573,1.117 -0.615,0.328 -1.31,0.65 -2.083,0.966 -0.586,0.2 -1.104,0.384 -1.556,0.554 -0.451,0.17 -0.838,0.358 -1.16,0.563 -0.322,0.205 -0.565,0.442 -0.729,0.711 -0.164,0.27 -0.246,0.598 -0.246,0.985 0,0.316 0.082,0.606 0.246,0.87 0.164,0.264 0.392,0.489 0.685,0.677 0.293,0.187 0.648,0.334 1.064,0.439 0.416,0.106 0.882,0.158 1.397,0.158 1.641,0 3.094,-0.433 4.36,-1.3 v 3.568 c -1.313,0.504 -2.801,0.756 -4.465,0.756 -0.938,0 -1.846,-0.114 -2.725,-0.343 -0.879,-0.228 -1.664,-0.568 -2.355,-1.019 -0.692,-0.452 -1.243,-1.008 -1.653,-1.67 -0.41,-0.662 -0.615,-1.427 -0.615,-2.294 0,-0.703 0.1,-1.319 0.299,-1.846 0.199,-0.527 0.495,-0.999 0.888,-1.415 0.392,-0.416 0.884,-0.788 1.476,-1.116 0.592,-0.328 1.257,-0.639 1.995,-0.932 0.598,-0.223 1.14,-0.422 1.626,-0.598 0.487,-0.175 0.908,-0.375 1.266,-0.597 0.357,-0.223 0.641,-0.478 0.852,-0.765 0.211,-0.287 0.317,-0.636 0.317,-1.046 0,-1.453 -1.231,-2.179 -3.692,-2.179 -1.839,0 -3.521,0.58 -5.045,1.74 v -3.78 c 1.442,-0.656 3.147,-0.984 5.116,-0.984 m 21.023,3.85 c -0.504,-0.399 -1.101,-0.598 -1.793,-0.598 -0.902,0 -1.547,0.229 -1.933,0.686 -0.387,0.457 -0.58,1.218 -0.58,2.285 v 9 h 4.306 v 3.199 h -4.306 v 5.326 l -4.079,-1.16 v -4.166 h -3.005 v -3.199 h 3.005 v -10.178 c 0,-3.352 1.746,-5.027 5.239,-5.027 1.3,0 2.349,0.199 3.146,0.597 z m 21.955,-3.428 c 2.59,0 4.735,0.668 6.434,2.004 1.699,1.336 2.549,3.082 2.549,5.238 0,1.735 -0.519,3.144 -1.556,4.228 -1.037,1.084 -2.423,1.725 -4.157,1.924 v 0.071 c 1.429,0.445 2.549,1.195 3.357,2.25 0.809,1.054 1.213,2.297 1.213,3.726 0,1.711 -0.712,3.1 -2.136,4.166 -1.423,1.067 -3.354,1.6 -5.792,1.6 h -7.998 v -25.207 z m -0.879,21.85 c 2.883,0 4.325,-1.079 4.325,-3.235 0,-1.254 -0.414,-2.223 -1.24,-2.909 -0.826,-0.686 -1.966,-1.028 -3.419,-1.028 h -2.707 v 7.172 z m -0.017,-10.53 c 3.621,0 5.431,-1.306 5.431,-3.92 0,-1.265 -0.424,-2.258 -1.274,-2.979 -0.85,-0.721 -2.054,-1.081 -3.612,-1.081 h -3.569 v 7.98 z m 29.795,6.68 h -4.078 v -10.354 c 0,-1.441 -0.39,-2.607 -1.169,-3.498 -0.78,-0.89 -1.773,-1.336 -2.98,-1.336 -2.496,0 -3.744,1.618 -3.744,4.852 v 10.336 h -4.078 v -10.758 c 0,-5.109 2.127,-7.664 6.381,-7.664 2.496,0 4.336,1.09 5.519,3.27 h 0.071 v -2.848 h 4.078 z m 9.298,-18.422 c 1.02,0 1.99,0.108 2.91,0.325 0.92,0.217 1.731,0.548 2.434,0.993 0.703,0.446 1.266,1.008 1.688,1.688 0.422,0.68 0.633,1.477 0.633,2.391 0,0.75 -0.118,1.397 -0.352,1.942 -0.234,0.545 -0.568,1.025 -1.002,1.441 -0.434,0.416 -0.958,0.788 -1.573,1.117 -0.615,0.328 -1.31,0.65 -2.083,0.966 -0.586,0.2 -1.105,0.384 -1.556,0.554 -0.451,0.17 -0.838,0.358 -1.16,0.563 -0.322,0.205 -0.565,0.442 -0.73,0.711 -0.164,0.27 -0.246,0.598 -0.246,0.985 0,0.316 0.082,0.606 0.246,0.87 0.165,0.264 0.393,0.489 0.686,0.677 0.293,0.187 0.647,0.334 1.064,0.439 0.416,0.106 0.881,0.158 1.397,0.158 1.641,0 3.094,-0.433 4.359,-1.3 v 3.568 c -1.312,0.504 -2.8,0.756 -4.465,0.756 -0.937,0 -1.845,-0.114 -2.724,-0.343 -0.879,-0.228 -1.664,-0.568 -2.356,-1.019 -0.691,-0.452 -1.242,-1.008 -1.652,-1.67 -0.41,-0.662 -0.615,-1.427 -0.615,-2.294 0,-0.703 0.099,-1.319 0.299,-1.846 0.199,-0.527 0.495,-0.999 0.887,-1.415 0.393,-0.416 0.885,-0.788 1.477,-1.116 0.592,-0.328 1.257,-0.639 1.995,-0.932 0.598,-0.223 1.14,-0.422 1.626,-0.598 0.486,-0.175 0.908,-0.375 1.266,-0.597 0.357,-0.223 0.641,-0.478 0.852,-0.765 0.211,-0.287 0.317,-0.636 0.317,-1.046 0,-1.453 -1.231,-2.179 -3.692,-2.179 -1.84,0 -3.521,0.58 -5.045,1.74 v -3.78 c 1.442,-0.656 3.147,-0.984 5.115,-0.984 m 15.346,22.878 c 0.481,0.451 0.721,0.993 0.721,1.626 0,0.668 -0.24,1.225 -0.721,1.67 -0.48,0.445 -1.066,0.668 -1.758,0.668 -0.668,0 -1.239,-0.223 -1.713,-0.668 -0.475,-0.445 -0.712,-1.002 -0.712,-1.67 0,-0.668 0.237,-1.219 0.712,-1.652 0.474,-0.434 1.045,-0.651 1.713,-0.651 0.692,0 1.278,0.226 1.758,0.677 m 0.264,-4.456 h -4.078 v -18 h 4.078 z m 21.357,-6.996 c 0,2.402 -0.515,4.239 -1.547,5.511 -1.031,1.271 -2.525,1.907 -4.482,1.907 -2.543,0 -4.488,-1.137 -5.836,-3.41 h -0.07 v 2.988 h -4.096 v -18 h 4.096 v 10.266 c 0,1.418 0.404,2.592 1.213,3.524 0.808,0.932 1.834,1.397 3.076,1.397 2.379,0 3.568,-1.681 3.568,-5.044 v -10.143 h 4.078 z m 20.215,-1.547 c 0,2.812 -0.674,5.01 -2.021,6.592 -1.348,1.582 -3.252,2.373 -5.713,2.373 -2.461,0 -4.521,-0.882 -6.179,-2.646 -1.658,-1.763 -2.487,-4.046 -2.487,-6.846 0,-2.965 0.753,-5.265 2.259,-6.9 1.505,-1.635 3.583,-2.452 6.231,-2.452 2.695,0 4.863,0.516 6.504,1.547 v 3.287 c -1.606,-1.148 -3.369,-1.723 -5.291,-1.723 -1.711,0 -3.056,0.452 -4.034,1.354 -0.979,0.902 -1.492,2.185 -1.538,3.85 h 12.269 z m -12.269,1.318 c 0.187,1.383 0.688,2.502 1.503,3.358 0.814,0.855 1.807,1.283 2.979,1.283 1.195,0 2.133,-0.407 2.813,-1.222 0.679,-0.814 1.025,-1.954 1.037,-3.419 z m 20.144,-11.197 c 1.02,0 1.989,0.108 2.909,0.325 0.92,0.217 1.732,0.548 2.435,0.993 0.703,0.446 1.266,1.008 1.687,1.688 0.422,0.68 0.633,1.477 0.633,2.391 0,0.75 -0.117,1.397 -0.351,1.942 -0.235,0.545 -0.569,1.025 -1.002,1.441 -0.434,0.416 -0.958,0.788 -1.574,1.117 -0.615,0.328 -1.309,0.65 -2.083,0.966 -0.586,0.2 -1.104,0.384 -1.555,0.554 -0.451,0.17 -0.838,0.358 -1.16,0.563 -0.323,0.205 -0.566,0.442 -0.73,0.711 -0.164,0.27 -0.246,0.598 -0.246,0.985 0,0.316 0.082,0.606 0.246,0.87 0.164,0.264 0.393,0.489 0.686,0.677 0.293,0.187 0.647,0.334 1.063,0.439 0.416,0.106 0.882,0.158 1.398,0.158 1.64,0 3.093,-0.433 4.359,-1.3 v 3.568 c -1.313,0.504 -2.801,0.756 -4.465,0.756 -0.937,0 -1.846,-0.114 -2.724,-0.343 -0.879,-0.228 -1.665,-0.568 -2.356,-1.019 -0.691,-0.452 -1.242,-1.008 -1.652,-1.67 -0.41,-0.662 -0.616,-1.427 -0.616,-2.294 0,-0.703 0.1,-1.319 0.299,-1.846 0.2,-0.527 0.495,-0.999 0.888,-1.415 0.393,-0.416 0.885,-0.788 1.477,-1.116 0.591,-0.328 1.256,-0.639 1.995,-0.932 0.597,-0.223 1.139,-0.422 1.626,-0.598 0.486,-0.175 0.908,-0.375 1.265,-0.597 0.358,-0.223 0.642,-0.478 0.853,-0.765 0.211,-0.287 0.316,-0.636 0.316,-1.046 0,-1.453 -1.23,-2.179 -3.691,-2.179 -1.84,0 -3.522,0.58 -5.045,1.74 v -3.78 c 1.441,-0.656 3.146,-0.984 5.115,-0.984 m 15.522,0 c 1.019,0 1.989,0.108 2.909,0.325 0.92,0.217 1.731,0.548 2.434,0.993 0.703,0.446 1.266,1.008 1.688,1.688 0.422,0.68 0.633,1.477 0.633,2.391 0,0.75 -0.118,1.397 -0.352,1.942 -0.234,0.545 -0.568,1.025 -1.002,1.441 -0.433,0.416 -0.958,0.788 -1.573,1.117 -0.615,0.328 -1.31,0.65 -2.083,0.966 -0.586,0.2 -1.105,0.384 -1.556,0.554 -0.451,0.17 -0.838,0.358 -1.16,0.563 -0.322,0.205 -0.565,0.442 -0.729,0.711 -0.164,0.27 -0.246,0.598 -0.246,0.985 0,0.316 0.082,0.606 0.246,0.87 0.164,0.264 0.392,0.489 0.685,0.677 0.293,0.187 0.648,0.334 1.064,0.439 0.416,0.106 0.881,0.158 1.397,0.158 1.641,0 3.094,-0.433 4.359,-1.3 v 3.568 c -1.312,0.504 -2.8,0.756 -4.464,0.756 -0.938,0 -1.846,-0.114 -2.725,-0.343 -0.879,-0.228 -1.664,-0.568 -2.355,-1.019 -0.692,-0.452 -1.243,-1.008 -1.653,-1.67 -0.41,-0.662 -0.615,-1.427 -0.615,-2.294 0,-0.703 0.1,-1.319 0.299,-1.846 0.199,-0.527 0.495,-0.999 0.887,-1.415 0.393,-0.416 0.885,-0.788 1.477,-1.116 0.592,-0.328 1.257,-0.639 1.995,-0.932 0.598,-0.223 1.14,-0.422 1.626,-0.598 0.486,-0.175 0.908,-0.375 1.266,-0.597 0.357,-0.223 0.641,-0.478 0.852,-0.765 0.211,-0.287 0.317,-0.636 0.317,-1.046 0,-1.453 -1.231,-2.179 -3.692,-2.179 -1.84,0 -3.521,0.58 -5.045,1.74 v -3.78 c 1.442,-0.656 3.147,-0.984 5.116,-0.984" /></g><g
           transform="translate(130.6798,66.6355)"
           id="g48"><path
             id="path50"
             style="fill:#52668f;fill-opacity:1;fill-rule:nonzero;stroke:none"
             d="m 0,0 c 0,-30.376 -24.625,-55 -55,-55 -30.375,0 -55,24.624 -55,55 0,30.375 24.625,55 55,55 C -24.625,55 0,30.375 0,0" /></g><g
           transform="translate(90.6046,107.8845)"
           id="g52"><path
             id="path54"
             style="fill:#e9e8e8;fill-opacity:1;fill-rule:nonzero;stroke:none"
             d="m 0,0 h -9.463 l -11.25,-27.861 c -0.45,-1.075 -1.036,-2.715 -1.758,-4.922 h -0.146 c -0.254,1.054 -0.801,2.656 -1.641,4.804 L -35.303,0 h -9.814 v -42.012 h 6.445 v 27.129 c 0,3.809 -0.078,6.553 -0.234,8.233 h 0.117 c 0.391,-1.875 0.762,-3.272 1.113,-4.19 l 12.569,-31.172 h 4.804 l 12.539,31.407 c 0.332,0.8 0.713,2.119 1.143,3.955 h 0.117 c -0.274,-3.223 -0.41,-5.948 -0.41,-8.174 V -42.012 H 0 Z" /></g><g
           transform="translate(96.964,42.8728)"
           id="g56"><path
             id="path58"
             style="fill:#e9e8e8;fill-opacity:1;fill-rule:nonzero;stroke:none"
             d="m 0,0 c 4.316,0 7.891,1.113 10.723,3.34 2.831,2.226 4.248,5.137 4.248,8.73 0,2.891 -0.865,5.24 -2.593,7.046 -1.729,1.807 -4.039,2.876 -6.929,3.208 v 0.117 c 2.383,0.743 4.248,1.993 5.596,3.75 1.348,1.758 2.021,3.829 2.021,6.211 0,2.852 -1.186,5.166 -3.559,6.944 -2.373,1.777 -5.591,2.666 -9.653,2.666 h -13.331 l 0,-42.012 z m -1.465,36.416 c 4.805,0 7.207,-1.797 7.207,-5.391 0,-2.089 -0.688,-3.706 -2.065,-4.848 C 2.3,25.034 0.4,24.463 -2.021,24.463 H -6.533 V 36.416 Z M -1.494,18.867 c 6.035,0 9.053,-2.178 9.053,-6.533 C 7.559,10.225 6.851,8.569 5.435,7.368 4.018,6.167 2.011,5.566 -0.586,5.566 h -5.947 v 13.301 z" /></g><g
           transform="translate(83.7843,32.0759)"
           id="g60"><path
             id="path62"
             style="fill:#e9e8e8;fill-opacity:1;fill-rule:nonzero;stroke:none"
             d="m 0,0 c -2.911,-1.875 -6.348,-2.813 -10.313,-2.813 -4.296,0 -7.763,1.373 -10.4,4.117 -2.637,2.744 -3.955,6.43 -3.955,11.059 0,4.864 1.411,8.75 4.233,11.66 2.823,2.911 6.509,4.366 11.06,4.366 3.417,0 6.543,-0.84 9.375,-2.52 v 6.914 c -2.676,1.153 -6.045,1.729 -10.107,1.729 -6.31,0 -11.529,-2.071 -15.66,-6.211 -4.13,-4.141 -6.196,-9.571 -6.196,-16.289 0,-6.25 1.836,-11.299 5.508,-15.147 3.672,-3.847 8.555,-5.771 14.648,-5.771 4.707,0 8.643,0.82 11.807,2.461 z" /></g><g
           transform="translate(440.6798,98.6355)"
           id="g64"><path
             id="path66"
             style="fill:none;stroke:#bcccd4;stroke-width:5;stroke-linecap:butt;stroke-linejoin:miter;stroke-miterlimit:10;stroke-dasharray:none;stroke-opacity:1"
             d="M 0,0 V -66" /></g></g></g></g></svg>